<?xml version="1.0" encoding="UTF-8"?>
<svg id="Capa_4" data-name="Capa 4" xmlns="http://www.w3.org/2000/svg" viewBox="0 0 448 512">
  <defs>
    <style>
      .cls-1 {
        fill: #03d14d;
      }

      .cls-2 {
        fill: none;
        stroke: #058620;
        stroke-miterlimit: 10;
        stroke-width: 40px;
      }

      .cls-3 {
        fill: #078521;
      }
    </style>
  </defs>
  <circle class="cls-1" cx="224" cy="259.393" r="203"/>
  <g>
    <path class="cls-3" d="M325.027,291.05l-136.077-136.077c-3.479-3.479-.413-9.37,4.432-8.516l113.055,19.919c3.668.646,6.54,3.518,7.187,7.187l19.919,113.055c.854,4.846-5.037,7.912-8.516,4.432Z"/>
    <path class="cls-2" d="M325.027,291.05l-136.077-136.077c-3.479-3.479-.413-9.37,4.432-8.516l113.055,19.919c3.668.646,6.54,3.518,7.187,7.187l19.919,113.055c.854,4.846-5.037,7.912-8.516,4.432Z"/>
  </g>
  <g>
    <path class="cls-3" d="M122.973,220.951l136.077,136.077c3.479,3.479.413,9.37-4.432,8.516l-113.055-19.919c-3.668-.646-6.54-3.518-7.187-7.187l-19.919-113.055c-.854-4.846,5.037-7.912,8.516-4.432Z"/>
    <path class="cls-2" d="M122.973,220.951l136.077,136.077c3.479,3.479.413,9.37-4.432,8.516l-113.055-19.919c-3.668-.646-6.54-3.518-7.187-7.187l-19.919-113.055c-.854-4.846,5.037-7.912,8.516-4.432Z"/>
  </g>
</svg>